<!-- <svg width="920" height="314" viewBox="0 0 920 314" fill="none" xmlns="http://www.w3.org/2000/svg"> -->
<svg viewBox="0 0 920 314" fill="none" xmlns="http://www.w3.org/2000/svg">
<g id="developer">
<g id="thoughts">
<path id="Vector" d="M171.383 48.3811H150.737V69.679H171.383V48.3811Z" fill="#6C63FF"/>
<path id="Vector_2" d="M183.919 57.5087H158.848V31.647H183.919V57.5087ZM159.938 56.3843H182.829V32.7714H159.938V56.3843Z" fill="#3F3D56"/>
<path id="Vector_3" d="M136.629 108.261L130.96 87.782L111.107 93.63L116.776 114.109L136.629 108.261Z" fill="#6C63FF"/>
<path id="Vector_4" d="M131.562 123.202L124.679 98.3338L148.786 91.2327L155.67 116.1L131.562 123.202ZM126.026 99.1062L132.311 121.812L154.322 115.328L148.037 92.6227L126.026 99.1062Z" fill="#3F3D56"/>
<path id="Vector_5" d="M100.003 59.3041L114.1 43.7437L99.016 29.2015L84.9186 44.7619L100.003 59.3041Z" fill="#6C63FF"/>
<path id="Vector_6" d="M84.9791 62.5191L102.097 43.6244L120.414 61.2828L103.296 80.1775L84.9791 62.5191ZM102.149 45.2137L86.5197 62.4654L103.244 78.5882L118.873 61.3365L102.149 45.2137Z" fill="#3F3D56"/>
</g>
<g id="man">
<path id="Vector_7" d="M146.191 250.011L129.177 248.9L134.849 273.876L154.131 266.106L146.191 250.011Z" fill="#FFB9B9"/>
<path id="Vector_8" d="M302.157 203.39L262.457 165.649L239.771 182.855L194.966 235.58L200.071 243.35L254.517 207.275L291.381 254.45L326.545 237.246L302.157 203.39Z" fill="#2F2E41"/>
<path id="Vector_9" opacity="0.1" d="M302.157 203.39L262.457 165.649L239.771 182.855L194.966 235.58L200.071 243.35L254.517 207.275L291.381 254.45L326.545 237.246L302.157 203.39Z" fill="black"/>
<path id="Vector_10" d="M305.56 228.365L300.456 232.25L259.054 218.375L249.413 214.49L230.129 218.375C230.129 218.375 230.129 202.835 248.278 203.39L266.994 207.83L289.113 209.495L305.56 228.365Z" fill="#FFB9B9"/>
<path id="Vector_11" d="M342.425 269.436L329.948 277.206H315.202L246.577 252.231L146.191 269.991L143.355 248.9L235.234 209.495L315.769 235.58L342.425 269.436Z" fill="#2F2E41"/>
<path id="Vector_12" d="M261.89 170.645L253.383 172.31L251.529 170.193C250.061 168.517 249.131 166.455 248.856 164.265C248.58 162.075 248.971 159.853 249.98 157.879L273.8 127.354C273.8 127.354 280.606 112.369 291.382 118.474C302.157 124.579 282.307 134.569 282.307 134.569L270.397 152.884L271.531 162.319L261.89 170.645Z" fill="#FFB9B9"/>
<path id="Vector_13" d="M315.769 134.569C327.985 134.569 337.888 124.878 337.888 112.924C337.888 100.969 327.985 91.2785 315.769 91.2785C303.553 91.2785 293.65 100.969 293.65 112.924C293.65 124.878 303.553 134.569 315.769 134.569Z" fill="#FFB9B9"/>
<path id="Vector_14" d="M305.844 128.741L316.053 152.607L340.44 142.617C340.44 142.617 332.5 123.746 332.5 123.191C332.5 122.636 305.844 128.741 305.844 128.741Z" fill="#FFB9B9"/>
<path id="Vector_15" d="M373 199.344C373 212.407 370.896 225.389 366.767 237.812L365.111 242.796L357.171 278.316L348.664 280.536L342.425 272.766L329.948 263.886L320.873 249.456L313.092 236.768L310.665 232.805L302.157 191.18L269.83 173.42L259.054 171.755L261.323 165.649L270.964 152.884L280.606 151.774L283.441 149.554L285.71 150.664L294.784 145.669L297.62 146.779L314.204 148.289L324.276 146.224L338.761 138.615L344.694 139.564L365.111 156.214C370.33 170.02 373.002 184.624 373 199.344Z" fill="#575A89"/>
<path id="Vector_16" d="M134.4 258.605C134.4 258.605 139.48 250.179 137.334 249.196C135.188 248.212 126.076 244.291 126.076 244.291L112.714 239.957C112.714 239.957 93.4323 211.915 93.0091 236.301C92.5859 260.687 107.048 266.549 107.048 266.549C107.048 266.549 119.947 293.714 127.254 289.383C134.56 285.051 141.872 270.346 141.872 270.346C141.872 270.346 128.696 263.415 134.4 258.605Z" fill="#2F2E41"/>
<path id="Vector_17" opacity="0.1" d="M366.812 194.51L345.26 208.385L313.092 236.768L310.665 232.805L303.859 199.505H305.56L323.142 167.87L366.812 194.51Z" fill="black"/>
<path id="Vector_18" d="M323.142 164.54L305.56 196.175H299.322L295.352 207.275L286.278 209.495L310.665 235.58L345.26 205.055L366.812 191.18L323.142 164.54Z" fill="#575A89"/>
<path id="Vector_19" d="M298.565 96.8295L296.169 97.7318C295.8 97.4876 295.485 97.1738 295.242 96.8089C294.999 96.444 294.832 96.0353 294.753 95.6067C294.673 95.1781 294.682 94.7382 294.778 94.3129C294.874 93.8876 295.056 93.4853 295.313 93.1297L290.885 92.9269C293.728 89.2216 297.342 86.1493 301.489 83.9133C305.636 81.6773 310.221 80.3286 314.941 79.9563C319.66 79.5841 324.407 80.1968 328.866 81.7539C333.326 83.3111 337.396 85.7772 340.809 88.989C341.011 88.3095 343.209 89.6316 344.106 90.9723C344.407 89.8664 346.468 95.2121 347.197 98.9907C347.535 97.7326 348.832 99.7637 347.696 101.713C348.416 101.61 348.741 103.413 348.184 104.418C348.972 104.055 348.839 106.208 347.984 107.647C349.109 107.549 339.117 122.725 335.071 131.594C333.896 126.312 332.575 120.75 328.788 116.815C328.144 116.146 327.439 115.537 326.735 114.929L322.927 111.64C318.5 107.816 314.473 103.096 308.575 101.667C304.522 100.685 301.96 100.463 304.168 95.9939C302.173 96.8088 300.309 98.0207 298.296 98.7776C298.323 98.1532 298.604 97.4543 298.565 96.8295Z" fill="#2F2E41"/>
<path id="Vector_20" d="M326.828 119.306C329.021 119.306 330.798 117.567 330.798 115.421C330.798 113.276 329.021 111.536 326.828 111.536C324.636 111.536 322.858 113.276 322.858 115.421C322.858 117.567 324.636 119.306 326.828 119.306Z" fill="#FFB9B9"/>
</g>
<g id="monitor">
<path id="Vector_21" d="M780.511 3.5946H606.956V0H528.26V3.5946H353.99C352.449 3.59459 350.922 3.89973 349.498 4.49259C348.073 5.08544 346.779 5.95441 345.689 7.04987C344.599 8.14532 343.734 9.44582 343.144 10.8771C342.554 12.3084 342.251 13.8424 342.251 15.3916V254.203C342.251 255.752 342.554 257.286 343.144 258.717C343.734 260.149 344.599 261.449 345.689 262.545C346.779 263.64 348.073 264.509 349.498 265.102C350.922 265.695 352.449 266 353.99 266H780.511C783.625 266 786.611 264.757 788.812 262.545C791.014 260.332 792.251 257.332 792.251 254.203V15.3916C792.251 13.8424 791.947 12.3084 791.357 10.8771C790.767 9.44582 789.902 8.14532 788.812 7.04987C787.722 5.95441 786.428 5.08544 785.004 4.49259C783.579 3.89973 782.053 3.59459 780.511 3.5946Z" fill="#3F3D56"/>
<path id="Vector_22" d="M776.511 24.4432H357.99V261.686H776.511V24.4432Z" fill="#6C63FF"/>
<path id="Vector_23" d="M566.893 17.973C569.264 17.973 571.185 16.0417 571.185 13.6595C571.185 11.2772 569.264 9.34595 566.893 9.34595C564.522 9.34595 562.6 11.2772 562.6 13.6595C562.6 16.0417 564.522 17.973 566.893 17.973Z" fill="#6C63FF"/>
<path id="Vector_24" opacity="0.1" d="M656.821 261.687H357.99V24.4434L656.821 261.687Z" fill="black"/>
<path id="Vector_25" d="M398.785 233.95C407.996 233.95 415.462 226.447 415.462 217.191C415.462 207.936 407.996 200.433 398.785 200.433C389.575 200.433 382.108 207.936 382.108 217.191C382.108 226.447 389.575 233.95 398.785 233.95Z" fill="#F2F2F2"/>
<path id="Vector_26" d="M405.738 227.167C402.439 227.167 399.215 226.184 396.472 224.343C393.73 222.501 391.592 219.884 390.33 216.822C389.068 213.759 388.738 210.39 389.381 207.139C390.025 203.888 391.613 200.902 393.945 198.558C396.278 196.214 399.249 194.618 402.484 193.972C405.719 193.325 409.072 193.657 412.12 194.925C415.167 196.194 417.772 198.342 419.604 201.098C421.437 203.854 422.415 207.094 422.415 210.408C422.41 214.851 420.651 219.111 417.525 222.253C414.398 225.395 410.159 227.162 405.738 227.167ZM405.738 193.869C402.482 193.869 399.3 194.839 396.594 196.656C393.887 198.474 391.777 201.057 390.532 204.079C389.286 207.101 388.96 210.427 389.595 213.635C390.23 216.843 391.798 219.79 394.099 222.103C396.401 224.417 399.334 225.992 402.527 226.63C405.719 227.268 409.029 226.941 412.036 225.689C415.044 224.437 417.614 222.317 419.423 219.597C421.231 216.877 422.197 213.68 422.197 210.408C422.192 206.023 420.456 201.819 417.371 198.719C414.285 195.618 410.101 193.874 405.738 193.869Z" fill="#3F3D56"/>
<path id="Vector_27" d="M750.903 29.2564H734.565V45.6743H750.903V29.2564Z" fill="#F2F2F2"/>
<path id="Vector_28" d="M758.489 53.2969H738.65V33.3609H758.489V53.2969ZM739.512 52.4301H757.626V34.2277H739.512V52.4301Z" fill="#3F3D56"/>
</g>
<g id="lines-section">
<path id="Vector_29" d="M673.64 142.39H634.545V150.599H673.64V142.39Z" fill="#3F3D56"/>
<path id="Vector_30" d="M720.903 78.478H587.282V81.9961H720.903V78.478Z" fill="#3F3D56"/>
<path id="Vector_31" d="M720.903 89.6187H587.282V93.1368H720.903V89.6187Z" fill="#3F3D56"/>
<path id="Vector_32" d="M720.903 100.759H587.282V104.278H720.903V100.759Z" fill="#3F3D56"/>
<path id="Vector_33" d="M720.903 111.9H587.282V115.418H720.903V111.9Z" fill="#3F3D56"/>
<path id="Vector_34" d="M720.903 123.041H587.282V126.559H720.903V123.041Z" fill="#3F3D56"/>
</g>
<g id="code-sign">
<path id="Vector_35" opacity="0.1" d="M482.744 123.684L501.609 105.912L482.744 88.1404L488.496 82.7237L513.112 105.912L488.496 129.101L482.744 123.684Z" fill="black"/>
<path id="Vector_36" opacity="0.1" d="M428.871 107.18H436.54V99.9338H428.871V107.18ZM467.368 99.9338H459.7V107.18H467.368V99.9338ZM444.285 107.18H451.954V99.9338H444.285V107.18Z" fill="black"/>
<path id="Vector_37" opacity="0.1" d="M418.48 123.503L399.596 105.731L418.461 87.9592L412.709 82.5425L388.112 105.731L412.729 128.919L418.48 123.503Z" fill="black"/>
<path id="Vector_38" d="M510.722 101.122C510.722 101.122 504.819 96.8872 504.371 98.4395C503.923 99.9919 508.702 103.52 508.702 103.52L510.722 101.122Z" fill="#FFB9B9"/>
<path id="Vector_39" opacity="0.1" d="M510.722 101.122C510.722 101.122 504.819 96.8872 504.371 98.4395C503.923 99.9919 508.702 103.52 508.702 103.52L510.722 101.122Z" fill="black"/>
<path id="Vector_40" d="M482.744 120.242L501.609 102.47L482.744 84.6983L488.496 79.2817L513.112 102.47L488.496 125.658L482.744 120.242Z" fill="white"/>
<path id="Vector_41" d="M428.871 103.738H436.54V96.4918H428.871V103.738ZM467.368 96.4918H459.7V103.738H467.368V96.4918ZM444.285 103.738H451.954V96.4918H444.285V103.738Z" fill="white"/>
<path id="Vector_42" d="M418.48 120.061L399.596 102.289L418.461 84.5172L412.709 79.1005L388.112 102.289L412.729 125.477L418.48 120.061Z" fill="white"/>
</g>
<path id="keyboard" d="M801.255 256.381H759.884V253.272C759.884 253.191 759.868 253.111 759.838 253.036C759.809 252.961 759.765 252.893 759.71 252.836C759.656 252.779 759.59 252.734 759.519 252.703C759.447 252.672 759.37 252.656 759.292 252.656H745.108C745.03 252.656 744.954 252.672 744.882 252.703C744.81 252.734 744.745 252.779 744.69 252.836C744.635 252.893 744.592 252.961 744.562 253.036C744.532 253.111 744.517 253.191 744.517 253.272V256.381H735.652V253.272C735.652 253.191 735.636 253.111 735.607 253.036C735.577 252.961 735.534 252.893 735.479 252.836C735.424 252.779 735.359 252.734 735.287 252.703C735.215 252.672 735.138 252.656 735.061 252.656H720.876C720.799 252.656 720.722 252.672 720.65 252.703C720.578 252.734 720.513 252.779 720.458 252.836C720.404 252.893 720.36 252.961 720.33 253.036C720.301 253.111 720.285 253.191 720.285 253.272V256.381H711.42V253.272C711.42 253.191 711.405 253.111 711.375 253.036C711.345 252.961 711.302 252.893 711.247 252.836C711.192 252.779 711.127 252.734 711.055 252.703C710.984 252.672 710.907 252.656 710.829 252.656H696.645C696.567 252.656 696.49 252.672 696.418 252.703C696.347 252.734 696.282 252.779 696.227 252.836C696.172 252.893 696.128 252.961 696.099 253.036C696.069 253.111 696.054 253.191 696.054 253.272V256.381H687.188V253.272C687.188 253.191 687.173 253.111 687.143 253.036C687.114 252.961 687.07 252.893 687.015 252.836C686.96 252.779 686.895 252.734 686.824 252.703C686.752 252.672 686.675 252.656 686.597 252.656H672.413C672.335 252.656 672.259 252.672 672.187 252.703C672.115 252.734 672.05 252.779 671.995 252.836C671.94 252.893 671.897 252.961 671.867 253.036C671.837 253.111 671.822 253.191 671.822 253.272V256.381H662.957V253.272C662.957 253.191 662.941 253.111 662.912 253.036C662.882 252.961 662.839 252.893 662.784 252.836C662.729 252.779 662.664 252.734 662.592 252.703C662.52 252.672 662.443 252.656 662.366 252.656H648.181C648.104 252.656 648.027 252.672 647.955 252.703C647.883 252.734 647.818 252.779 647.763 252.836C647.709 252.893 647.665 252.961 647.635 253.036C647.606 253.111 647.59 253.191 647.59 253.272V256.381H638.725V253.272C638.725 253.191 638.71 253.111 638.68 253.036C638.65 252.961 638.607 252.893 638.552 252.836C638.497 252.779 638.432 252.734 638.36 252.703C638.289 252.672 638.212 252.656 638.134 252.656H623.95C623.872 252.656 623.795 252.672 623.724 252.703C623.652 252.734 623.587 252.779 623.532 252.836C623.477 252.893 623.433 252.961 623.404 253.036C623.374 253.111 623.359 253.191 623.359 253.272V256.381H614.493V253.272C614.493 253.191 614.478 253.111 614.448 253.036C614.419 252.961 614.375 252.893 614.32 252.836C614.265 252.779 614.2 252.734 614.129 252.703C614.057 252.672 613.98 252.656 613.902 252.656H502.791C502.714 252.656 502.637 252.672 502.565 252.703C502.493 252.734 502.428 252.779 502.373 252.836C502.318 252.893 502.275 252.961 502.245 253.036C502.216 253.111 502.2 253.191 502.2 253.272V256.381H493.335V253.272C493.335 253.191 493.32 253.111 493.29 253.036C493.26 252.961 493.217 252.893 493.162 252.836C493.107 252.779 493.042 252.734 492.97 252.703C492.898 252.672 492.822 252.656 492.744 252.656H478.56C478.482 252.656 478.405 252.672 478.333 252.703C478.262 252.734 478.197 252.779 478.142 252.836C478.087 252.893 478.043 252.961 478.014 253.036C477.984 253.111 477.969 253.191 477.969 253.272V256.381H469.103V253.272C469.103 253.191 469.088 253.111 469.058 253.036C469.029 252.961 468.985 252.893 468.93 252.836C468.875 252.779 468.81 252.734 468.738 252.703C468.667 252.672 468.59 252.656 468.512 252.656H454.328C454.25 252.656 454.173 252.672 454.102 252.703C454.03 252.734 453.965 252.779 453.91 252.836C453.855 252.893 453.812 252.961 453.782 253.036C453.752 253.111 453.737 253.191 453.737 253.272V256.381H444.872V253.272C444.872 253.191 444.856 253.111 444.827 253.036C444.797 252.961 444.753 252.893 444.699 252.836C444.644 252.779 444.579 252.734 444.507 252.703C444.435 252.672 444.358 252.656 444.281 252.656H430.096C430.019 252.656 429.942 252.672 429.87 252.703C429.798 252.734 429.733 252.779 429.678 252.836C429.623 252.893 429.58 252.961 429.55 253.036C429.521 253.111 429.505 253.191 429.505 253.272V256.381H420.64V253.272C420.64 253.191 420.625 253.111 420.595 253.036C420.565 252.961 420.522 252.893 420.467 252.836C420.412 252.779 420.347 252.734 420.275 252.703C420.203 252.672 420.127 252.656 420.049 252.656H405.865C405.787 252.656 405.71 252.672 405.638 252.703C405.567 252.734 405.502 252.779 405.447 252.836C405.392 252.893 405.348 252.961 405.319 253.036C405.289 253.111 405.274 253.191 405.274 253.272V256.381H396.408V253.272C396.408 253.191 396.393 253.111 396.363 253.036C396.334 252.961 396.29 252.893 396.235 252.836C396.18 252.779 396.115 252.734 396.043 252.703C395.972 252.672 395.895 252.656 395.817 252.656H381.633C381.555 252.656 381.478 252.672 381.407 252.703C381.335 252.734 381.27 252.779 381.215 252.836C381.16 252.893 381.117 252.961 381.087 253.036C381.057 253.111 381.042 253.191 381.042 253.272V256.381H372.177V253.272C372.177 253.191 372.161 253.111 372.132 253.036C372.102 252.961 372.058 252.893 372.004 252.836C371.949 252.779 371.883 252.734 371.812 252.703C371.74 252.672 371.663 252.656 371.586 252.656H357.401C357.324 252.656 357.247 252.672 357.175 252.703C357.103 252.734 357.038 252.779 356.983 252.836C356.928 252.893 356.885 252.961 356.855 253.036C356.825 253.111 356.81 253.191 356.81 253.272V256.381H329.623C325.861 256.381 322.254 257.939 319.594 260.714C316.933 263.488 315.439 267.25 315.439 271.174V277.863C315.439 281.786 316.933 285.549 319.594 288.323C322.254 291.097 325.861 292.656 329.623 292.656H801.255C805.017 292.656 808.624 291.097 811.285 288.323C813.945 285.549 815.439 281.786 815.439 277.863V271.174C815.439 267.25 813.945 263.488 811.285 260.714C808.624 257.939 805.017 256.381 801.255 256.381Z" fill="#3F3D56"/>
<g id="ground-base">
<path id="Vector_43" d="M900 292.446C900 297.225 698.528 313.792 450 313.792C201.472 313.792 0 297.225 0 292.446C0 287.666 201.472 296.484 450 296.484C698.528 296.484 900 287.666 900 292.446Z" fill="#3F3D56"/>
<path id="Vector_44" d="M450 301.1C698.528 301.1 900 297.225 900 292.446C900 287.666 698.528 283.792 450 283.792C201.472 283.792 0 287.666 0 292.446C0 297.225 201.472 301.1 450 301.1Z" fill="#3F3D56"/>
</g>
<g id="plant">
<path id="Vector_45" d="M11.05 251.478C11.05 271.304 25.8148 287.346 44.0613 287.346L11.05 251.478Z" fill="#3F3D56"/>
<path id="Vector_46" d="M44.0613 287.346C44.0613 267.298 60.538 251.075 80.9001 251.075L44.0613 287.346Z" fill="#6C63FF"/>
<path id="Vector_47" d="M23.0106 253.275C23.0106 272.107 32.4258 287.346 44.0613 287.346L23.0106 253.275Z" fill="#6C63FF"/>
<path id="Vector_48" d="M44.0613 287.346C44.0613 261.729 63.1058 241 86.6412 241L44.0613 287.346Z" fill="#3F3D56"/>
<path id="Vector_49" d="M33.4401 287.599C33.4401 287.599 38.1217 287.478 39.5326 286.631C40.9435 285.785 46.734 284.774 47.084 286.132C47.434 287.489 54.1195 292.882 48.834 292.918C43.5486 292.954 36.553 292.225 35.1448 291.502C33.7366 290.78 33.4401 287.599 33.4401 287.599Z" fill="#A8A8A8"/>
<path id="Vector_50" opacity="0.2" d="M46.2641 290.852C43.1026 290.888 38.9184 290.158 38.0761 289.436C37.4346 288.885 37.179 286.911 37.0935 286C37.0343 286.004 37 286.005 37 286.005C37 286.005 37.1774 289.186 38.0196 289.908C38.8619 290.631 43.0462 291.36 46.2077 291.324C47.1202 291.314 47.4354 290.857 47.4181 290.179C47.2914 290.589 46.9433 290.844 46.2641 290.852Z" fill="black"/>
</g>
<g id="tree">
<path id="Vector_51" d="M919.841 173.846C919.841 226.786 891.859 245.271 857.341 245.271C822.823 245.271 794.841 226.786 794.841 173.846C794.841 120.905 857.341 53.5556 857.341 53.5556C857.341 53.5556 919.841 120.905 919.841 173.846Z" fill="#A8A8A8"/>
<path id="Vector_52" d="M855.064 237.173L855.704 192.866L882.343 138.052L855.805 185.916L856.093 165.993L874.451 126.337L856.169 160.722L856.686 124.891L876.345 93.3186L856.767 119.256L857.09 53.556L855.058 140.532L855.225 136.944L835.237 102.533L854.905 143.832L853.043 183.849L852.987 182.786L829.944 146.573L852.917 186.538L852.685 191.543L852.643 191.618L852.662 192.029L847.936 293.556H854.249L855.007 241.115L877.924 201.247L855.064 237.173Z" fill="#3F3D56"/>
</g>
</g>
</svg>
