<!-- <svg width="920" height="323" viewBox="0 0 920 323" fill="none" xmlns="http://www.w3.org/2000/svg"> -->
-<svg viewBox="0 0 920 323" fill="none" xmlns="http://www.w3.org/2000/svg">
    <g id="developer">
        <g id="thoughts">
        <path id="Vector" d="M199.383 39.3811H178.737V60.679H199.383V39.3811Z" fill="#6C63FF"/>
        <path id="Vector_2" d="M211.919 48.5087H186.848V22.647H211.919V48.5087ZM187.938 47.3843H210.829V23.7714H187.938V47.3843Z" fill="#3F3D56"/>
        <path id="Vector_3" d="M136.629 95.2614L130.96 74.782L111.107 80.63L116.776 101.109L136.629 95.2614Z" fill="#6C63FF"/>
        <path id="Vector_4" d="M131.562 110.202L124.679 85.3338L148.786 78.2327L155.669 103.1L131.562 110.202ZM126.026 86.1062L132.311 108.812L154.322 102.328L148.037 79.6226L126.026 86.1062Z" fill="#3F3D56"/>
        <path id="Vector_5" d="M102.003 30.3041L116.1 14.7437L101.016 0.201528L86.9185 15.7619L102.003 30.3041Z" fill="#6C63FF"/>
        <path id="Vector_6" d="M86.979 33.5192L104.097 14.6244L122.414 32.2828L105.296 51.1776L86.979 33.5192ZM104.149 16.2137L88.5197 33.4654L105.244 49.5883L120.873 32.3365L104.149 16.2137Z" fill="#3F3D56"/>
        </g>
        <g id="man">
        <path id="Vector_7" d="M146.191 259.011L129.177 257.9L134.849 282.876L154.131 275.106L146.191 259.011Z" fill="#FFB9B9"/>
        <path id="Vector_8" d="M302.157 212.39L262.457 174.649L239.771 191.855L194.966 244.58L200.071 252.35L254.517 216.275L291.381 263.45L326.545 246.246L302.157 212.39Z" fill="#2F2E41"/>
        <path id="Vector_9" opacity="0.1" d="M302.157 212.39L262.457 174.649L239.771 191.855L194.966 244.58L200.071 252.35L254.517 216.275L291.381 263.45L326.545 246.246L302.157 212.39Z" fill="black"/>
        <path id="Vector_10" d="M305.56 237.365L300.456 241.25L259.054 227.375L249.413 223.49L230.129 227.375C230.129 227.375 230.129 211.835 248.278 212.39L266.994 216.83L289.113 218.495L305.56 237.365Z" fill="#FFB9B9"/>
        <path id="Vector_11" d="M342.425 278.436L329.948 286.206H315.202L246.577 261.231L146.191 278.991L143.355 257.9L235.234 218.495L315.769 244.58L342.425 278.436Z" fill="#2F2E41"/>
        <path id="Vector_12" d="M261.89 179.645L253.383 181.31L251.529 179.193C250.061 177.517 249.131 175.455 248.856 173.265C248.58 171.075 248.971 168.853 249.98 166.879V166.879L273.8 136.354C273.8 136.354 280.606 121.369 291.382 127.474C302.157 133.579 282.307 143.569 282.307 143.569L270.397 161.884L271.531 171.319L261.89 179.645Z" fill="#FFB9B9"/>
        <path id="Vector_13" d="M315.769 143.569C327.985 143.569 337.888 133.878 337.888 121.924C337.888 109.969 327.985 100.278 315.769 100.278C303.553 100.278 293.65 109.969 293.65 121.924C293.65 133.878 303.553 143.569 315.769 143.569Z" fill="#FFB9B9"/>
        <path id="Vector_14" d="M305.844 137.741L316.053 161.607L340.44 151.617C340.44 151.617 332.5 132.746 332.5 132.191C332.5 131.636 305.844 137.741 305.844 137.741Z" fill="#FFB9B9"/>
        <path id="Vector_15" d="M373 208.344C373 221.407 370.896 234.389 366.767 246.812L365.111 251.796L357.171 287.316L348.664 289.536L342.425 281.766L329.948 272.886L320.873 258.456L313.092 245.768L310.665 241.805L302.157 200.18L269.83 182.42L259.054 180.755L261.323 174.649L270.964 161.884L280.606 160.774L283.441 158.554L285.71 159.664L294.784 154.669L297.62 155.779L314.204 157.289L324.276 155.224L338.761 147.615L344.694 148.564L365.111 165.214C370.33 179.02 373.002 193.624 373 208.344V208.344Z" fill="#575A89"/>
        <path id="Vector_16" d="M134.4 267.605C134.4 267.605 139.48 259.179 137.334 258.196C135.188 257.212 126.076 253.291 126.076 253.291L112.714 248.957C112.714 248.957 93.4323 220.915 93.0091 245.301C92.5859 269.687 107.048 275.549 107.048 275.549C107.048 275.549 119.947 302.714 127.254 298.383C134.56 294.051 141.872 279.346 141.872 279.346C141.872 279.346 128.696 272.415 134.4 267.605Z" fill="#2F2E41"/>
        <path id="Vector_17" opacity="0.1" d="M366.812 203.51L345.26 217.385L313.092 245.768L310.665 241.805L303.859 208.505H305.56L323.142 176.87L366.812 203.51Z" fill="black"/>
        <path id="Vector_18" d="M323.142 173.54L305.56 205.175H299.322L295.352 216.275L286.278 218.495L310.665 244.58L345.26 214.055L366.812 200.18L323.142 173.54Z" fill="#575A89"/>
        <path id="Vector_19" d="M298.565 105.83L296.169 106.732C295.8 106.488 295.485 106.174 295.242 105.809C294.999 105.444 294.832 105.035 294.753 104.607C294.673 104.178 294.682 103.738 294.778 103.313C294.874 102.888 295.056 102.485 295.313 102.13L290.885 101.927C293.728 98.2216 297.342 95.1493 301.489 92.9133C305.636 90.6773 310.221 89.3286 314.941 88.9563C319.66 88.5841 324.407 89.1968 328.866 90.7539C333.326 92.3111 337.396 94.7772 340.809 97.989C341.011 97.3095 343.209 98.6316 344.106 99.9723C344.407 98.8664 346.468 104.212 347.197 107.991C347.535 106.733 348.832 108.764 347.696 110.713C348.416 110.61 348.741 112.413 348.184 113.418C348.972 113.055 348.839 115.208 347.984 116.647C349.109 116.549 339.117 131.725 335.071 140.594C333.896 135.312 332.575 129.75 328.788 125.815C328.144 125.146 327.439 124.537 326.735 123.929L322.927 120.64C318.5 116.816 314.473 112.096 308.575 110.667C304.522 109.685 301.96 109.463 304.168 104.994C302.173 105.809 300.309 107.021 298.296 107.778C298.323 107.153 298.604 106.454 298.565 105.83Z" fill="#2F2E41"/>
        <path id="Vector_20" d="M326.828 128.306C329.021 128.306 330.798 126.567 330.798 124.421C330.798 122.276 329.021 120.536 326.828 120.536C324.636 120.536 322.858 122.276 322.858 124.421C322.858 126.567 324.636 128.306 326.828 128.306Z" fill="#FFB9B9"/>
        </g>
        <g id="monitor">
        <path id="Vector_21" d="M780.511 12.5946H606.956V9H528.26V12.5946H353.99C352.449 12.5946 350.922 12.8997 349.498 13.4926C348.073 14.0854 346.779 14.9544 345.689 16.0499C344.599 17.1453 343.734 18.4458 343.144 19.8771C342.554 21.3084 342.251 22.8424 342.251 24.3916V263.203C342.251 264.752 342.554 266.286 343.144 267.717C343.734 269.149 344.599 270.449 345.689 271.545C346.779 272.64 348.073 273.509 349.498 274.102C350.922 274.695 352.449 275 353.99 275H780.511C783.625 275 786.61 273.757 788.812 271.545C791.014 269.332 792.251 266.332 792.251 263.203V24.3916C792.251 22.8424 791.947 21.3084 791.357 19.8771C790.767 18.4458 789.902 17.1453 788.812 16.0499C787.722 14.9544 786.428 14.0854 785.003 13.4926C783.579 12.8997 782.053 12.5946 780.511 12.5946V12.5946Z" fill="#3F3D56"/>
        <path id="Vector_22" d="M776.511 33.4432H357.99V270.686H776.511V33.4432Z" fill="#6C63FF"/>
        <path id="Vector_23" d="M566.893 26.973C569.264 26.973 571.185 25.0417 571.185 22.6595C571.185 20.2772 569.264 18.3459 566.893 18.3459C564.522 18.3459 562.6 20.2772 562.6 22.6595C562.6 25.0417 564.522 26.973 566.893 26.973Z" fill="#6C63FF"/>
        <path id="Vector_24" opacity="0.1" d="M656.821 270.687H357.99V33.4434L656.821 270.687Z" fill="black"/>
        <path id="Vector_25" d="M398.785 242.95C407.996 242.95 415.462 235.447 415.462 226.191C415.462 216.936 407.996 209.433 398.785 209.433C389.575 209.433 382.108 216.936 382.108 226.191C382.108 235.447 389.575 242.95 398.785 242.95Z" fill="#F2F2F2"/>
        <path id="Vector_26" d="M405.738 236.167C402.439 236.167 399.215 235.184 396.472 233.343C393.73 231.501 391.592 228.884 390.33 225.822C389.068 222.759 388.738 219.39 389.381 216.139C390.025 212.888 391.613 209.902 393.945 207.558C396.278 205.214 399.249 203.618 402.484 202.972C405.719 202.325 409.072 202.657 412.12 203.925C415.167 205.194 417.772 207.342 419.604 210.098C421.437 212.854 422.415 216.094 422.415 219.408C422.41 223.851 420.651 228.111 417.525 231.253C414.398 234.395 410.159 236.162 405.738 236.167ZM405.738 202.869C402.482 202.869 399.3 203.839 396.594 205.656C393.887 207.474 391.777 210.057 390.532 213.079C389.286 216.101 388.96 219.427 389.595 222.635C390.23 225.843 391.798 228.79 394.099 231.103C396.401 233.417 399.334 234.992 402.527 235.63C405.719 236.268 409.029 235.941 412.036 234.689C415.044 233.437 417.614 231.317 419.423 228.597C421.231 225.877 422.197 222.68 422.197 219.408C422.192 215.023 420.456 210.819 417.371 207.719C414.285 204.618 410.101 202.874 405.738 202.869V202.869Z" fill="#3F3D56"/>
        <path id="Vector_27" d="M750.903 38.2564H734.565V54.6743H750.903V38.2564Z" fill="#F2F2F2"/>
        <path id="Vector_28" d="M758.489 62.2969H738.65V42.3609H758.489V62.2969ZM739.512 61.4301H757.626V43.2277H739.512V61.4301Z" fill="#3F3D56"/>
        </g>
        <g id="lines-section">
        <path id="Vector_29" d="M673.64 151.39H634.545V159.599H673.64V151.39Z" fill="#3F3D56"/>
        <path id="Vector_30" d="M720.903 87.478H587.282V90.9961H720.903V87.478Z" fill="#3F3D56"/>
        <path id="Vector_31" d="M720.903 98.6187H587.282V102.137H720.903V98.6187Z" fill="#3F3D56"/>
        <path id="Vector_32" d="M720.903 109.759H587.282V113.278H720.903V109.759Z" fill="#3F3D56"/>
        <path id="Vector_33" d="M720.903 120.9H587.282V124.418H720.903V120.9Z" fill="#3F3D56"/>
        <path id="Vector_34" d="M720.903 132.041H587.282V135.559H720.903V132.041Z" fill="#3F3D56"/>
        </g>
        <g id="code-sign">
        <path id="Vector_35" opacity="0.1" d="M482.744 132.684L501.609 114.912L482.744 97.1404L488.496 91.7237L513.112 114.912L488.496 138.101L482.744 132.684Z" fill="black"/>
        <path id="Vector_36" opacity="0.1" d="M428.871 116.18H436.54V108.934H428.871V116.18ZM467.368 108.934H459.7V116.18H467.368V108.934ZM444.285 116.18H451.954V108.934H444.285V116.18Z" fill="black"/>
        <path id="Vector_37" opacity="0.1" d="M418.48 132.503L399.596 114.731L418.461 96.9592L412.709 91.5425L388.112 114.731L412.729 137.919L418.48 132.503Z" fill="black"/>
        <path id="Vector_38" d="M510.722 110.122C510.722 110.122 504.819 105.887 504.371 107.44C503.923 108.992 508.702 112.52 508.702 112.52L510.722 110.122Z" fill="#FFB9B9"/>
        <path id="Vector_39" opacity="0.1" d="M510.722 110.122C510.722 110.122 504.819 105.887 504.371 107.44C503.923 108.992 508.702 112.52 508.702 112.52L510.722 110.122Z" fill="black"/>
        <path id="Vector_40" d="M482.744 129.242L501.609 111.47L482.744 93.6983L488.496 88.2817L513.112 111.47L488.496 134.658L482.744 129.242Z" fill="white"/>
        <path id="Vector_41" d="M428.871 112.738H436.54V105.492H428.871V112.738ZM467.368 105.492H459.7V112.738H467.368V105.492ZM444.285 112.738H451.954V105.492H444.285V112.738Z" fill="white"/>
        <path id="Vector_42" d="M418.48 129.061L399.596 111.289L418.461 93.5172L412.709 88.1005L388.112 111.289L412.729 134.477L418.48 129.061Z" fill="white"/>
        </g>
        <path id="keyboard" d="M801.255 265.381H759.884V262.272C759.884 262.191 759.868 262.111 759.838 262.036C759.809 261.961 759.765 261.893 759.71 261.836C759.656 261.779 759.59 261.734 759.519 261.703C759.447 261.672 759.37 261.656 759.292 261.656H745.108C745.03 261.656 744.954 261.672 744.882 261.703C744.81 261.734 744.745 261.779 744.69 261.836C744.635 261.893 744.592 261.961 744.562 262.036C744.532 262.111 744.517 262.191 744.517 262.272V265.381H735.652V262.272C735.652 262.191 735.636 262.111 735.607 262.036C735.577 261.961 735.534 261.893 735.479 261.836C735.424 261.779 735.359 261.734 735.287 261.703C735.215 261.672 735.138 261.656 735.061 261.656H720.876C720.799 261.656 720.722 261.672 720.65 261.703C720.578 261.734 720.513 261.779 720.458 261.836C720.404 261.893 720.36 261.961 720.33 262.036C720.301 262.111 720.285 262.191 720.285 262.272V265.381H711.42V262.272C711.42 262.191 711.405 262.111 711.375 262.036C711.345 261.961 711.302 261.893 711.247 261.836C711.192 261.779 711.127 261.734 711.055 261.703C710.984 261.672 710.907 261.656 710.829 261.656H696.645C696.567 261.656 696.49 261.672 696.418 261.703C696.347 261.734 696.282 261.779 696.227 261.836C696.172 261.893 696.128 261.961 696.099 262.036C696.069 262.111 696.054 262.191 696.054 262.272V265.381H687.188V262.272C687.188 262.191 687.173 262.111 687.143 262.036C687.114 261.961 687.07 261.893 687.015 261.836C686.96 261.779 686.895 261.734 686.824 261.703C686.752 261.672 686.675 261.656 686.597 261.656H672.413C672.335 261.656 672.259 261.672 672.187 261.703C672.115 261.734 672.05 261.779 671.995 261.836C671.94 261.893 671.897 261.961 671.867 262.036C671.837 262.111 671.822 262.191 671.822 262.272V265.381H662.957V262.272C662.957 262.191 662.941 262.111 662.912 262.036C662.882 261.961 662.839 261.893 662.784 261.836C662.729 261.779 662.664 261.734 662.592 261.703C662.52 261.672 662.443 261.656 662.366 261.656H648.181C648.104 261.656 648.027 261.672 647.955 261.703C647.883 261.734 647.818 261.779 647.763 261.836C647.709 261.893 647.665 261.961 647.635 262.036C647.606 262.111 647.59 262.191 647.59 262.272V265.381H638.725V262.272C638.725 262.191 638.71 262.111 638.68 262.036C638.65 261.961 638.607 261.893 638.552 261.836C638.497 261.779 638.432 261.734 638.36 261.703C638.289 261.672 638.212 261.656 638.134 261.656H623.95C623.872 261.656 623.795 261.672 623.724 261.703C623.652 261.734 623.587 261.779 623.532 261.836C623.477 261.893 623.433 261.961 623.404 262.036C623.374 262.111 623.359 262.191 623.359 262.272V265.381H614.493V262.272C614.493 262.191 614.478 262.111 614.448 262.036C614.419 261.961 614.375 261.893 614.32 261.836C614.265 261.779 614.2 261.734 614.129 261.703C614.057 261.672 613.98 261.656 613.902 261.656H502.791C502.714 261.656 502.637 261.672 502.565 261.703C502.493 261.734 502.428 261.779 502.373 261.836C502.318 261.893 502.275 261.961 502.245 262.036C502.216 262.111 502.2 262.191 502.2 262.272V265.381H493.335V262.272C493.335 262.191 493.32 262.111 493.29 262.036C493.26 261.961 493.217 261.893 493.162 261.836C493.107 261.779 493.042 261.734 492.97 261.703C492.898 261.672 492.822 261.656 492.744 261.656H478.56C478.482 261.656 478.405 261.672 478.333 261.703C478.262 261.734 478.197 261.779 478.142 261.836C478.087 261.893 478.043 261.961 478.014 262.036C477.984 262.111 477.969 262.191 477.969 262.272V265.381H469.103V262.272C469.103 262.191 469.088 262.111 469.058 262.036C469.029 261.961 468.985 261.893 468.93 261.836C468.875 261.779 468.81 261.734 468.738 261.703C468.667 261.672 468.59 261.656 468.512 261.656H454.328C454.25 261.656 454.173 261.672 454.102 261.703C454.03 261.734 453.965 261.779 453.91 261.836C453.855 261.893 453.812 261.961 453.782 262.036C453.752 262.111 453.737 262.191 453.737 262.272V265.381H444.872V262.272C444.872 262.191 444.856 262.111 444.827 262.036C444.797 261.961 444.753 261.893 444.699 261.836C444.644 261.779 444.579 261.734 444.507 261.703C444.435 261.672 444.358 261.656 444.281 261.656H430.096C430.019 261.656 429.942 261.672 429.87 261.703C429.798 261.734 429.733 261.779 429.678 261.836C429.623 261.893 429.58 261.961 429.55 262.036C429.521 262.111 429.505 262.191 429.505 262.272V265.381H420.64V262.272C420.64 262.191 420.625 262.111 420.595 262.036C420.565 261.961 420.522 261.893 420.467 261.836C420.412 261.779 420.347 261.734 420.275 261.703C420.203 261.672 420.127 261.656 420.049 261.656H405.865C405.787 261.656 405.71 261.672 405.638 261.703C405.567 261.734 405.502 261.779 405.447 261.836C405.392 261.893 405.348 261.961 405.319 262.036C405.289 262.111 405.274 262.191 405.274 262.272V265.381H396.408V262.272C396.408 262.191 396.393 262.111 396.363 262.036C396.334 261.961 396.29 261.893 396.235 261.836C396.18 261.779 396.115 261.734 396.043 261.703C395.972 261.672 395.895 261.656 395.817 261.656H381.633C381.555 261.656 381.478 261.672 381.407 261.703C381.335 261.734 381.27 261.779 381.215 261.836C381.16 261.893 381.117 261.961 381.087 262.036C381.057 262.111 381.042 262.191 381.042 262.272V265.381H372.177V262.272C372.177 262.191 372.161 262.111 372.132 262.036C372.102 261.961 372.058 261.893 372.004 261.836C371.949 261.779 371.883 261.734 371.812 261.703C371.74 261.672 371.663 261.656 371.586 261.656H357.401C357.324 261.656 357.247 261.672 357.175 261.703C357.103 261.734 357.038 261.779 356.983 261.836C356.928 261.893 356.885 261.961 356.855 262.036C356.825 262.111 356.81 262.191 356.81 262.272V265.381H329.623C325.861 265.381 322.254 266.939 319.594 269.714C316.933 272.488 315.439 276.25 315.439 280.174V286.863C315.439 290.786 316.933 294.549 319.594 297.323C322.254 300.097 325.861 301.656 329.623 301.656H801.255C805.017 301.656 808.624 300.097 811.285 297.323C813.945 294.549 815.439 290.786 815.439 286.863V280.174C815.439 276.25 813.945 272.488 811.285 269.714C808.624 266.939 805.017 265.381 801.255 265.381V265.381Z" fill="#3F3D56"/>
        <g id="ground-base">
        <path id="Vector_43" d="M900 301.446C900 306.225 698.528 322.792 450 322.792C201.472 322.792 0 306.225 0 301.446C0 296.666 201.472 305.484 450 305.484C698.528 305.484 900 296.666 900 301.446Z" fill="#3F3D56"/>
        <path id="Vector_44" d="M450 310.1C698.528 310.1 900 306.225 900 301.446C900 296.666 698.528 292.792 450 292.792C201.472 292.792 0 296.666 0 301.446C0 306.225 201.472 310.1 450 310.1Z" fill="#3F3D56"/>
        </g>
        <g id="plant">
        <path id="Vector_45" d="M11.05 260.478C11.05 280.304 25.8148 296.346 44.0613 296.346Z" fill="#3F3D56"/>
        <path id="Vector_46" d="M44.0613 296.346C44.0613 276.298 60.538 260.075 80.9001 260.075Z" fill="#6C63FF"/>
        <path id="Vector_47" d="M23.0106 262.275C23.0106 281.107 32.4258 296.346 44.0613 296.346Z" fill="#6C63FF"/>
        <path id="Vector_48" d="M44.0613 296.346C44.0613 270.729 63.1058 250 86.6412 250Z" fill="#3F3D56"/>
        <path id="Vector_49" d="M33.4401 296.599C33.4401 296.599 38.1217 296.478 39.5326 295.631C40.9435 294.785 46.734 293.774 47.084 295.132C47.434 296.489 54.1195 301.882 48.834 301.918C43.5486 301.954 36.553 301.225 35.1448 300.502C33.7366 299.78 33.4401 296.599 33.4401 296.599Z" fill="#A8A8A8"/>
        <path id="Vector_50" opacity="0.2" d="M46.2641 299.852C43.1026 299.888 38.9184 299.158 38.0761 298.436C37.4346 297.885 37.179 295.911 37.0935 295C37.0343 295.004 37 295.005 37 295.005C37 295.005 37.1774 298.186 38.0196 298.908C38.8619 299.631 43.0462 300.36 46.2076 300.324C47.1202 300.314 47.4354 299.857 47.4181 299.179C47.2914 299.589 46.9433 299.844 46.2641 299.852Z" fill="black"/>
        </g>
        <g id="tree">
        <path id="Vector_51" d="M919.841 182.846C919.841 235.786 891.859 254.271 857.341 254.271C822.823 254.271 794.841 235.786 794.841 182.846C794.841 129.905 857.341 62.5556 857.341 62.5556C857.341 62.5556 919.841 129.905 919.841 182.846Z" fill="#A8A8A8"/>
        <path id="Vector_52" d="M855.064 246.173L855.704 201.866L882.343 147.052L855.805 194.916L856.093 174.993L874.451 135.337L856.169 169.722L856.686 133.891L876.345 102.319L856.767 128.256L857.09 62.556L855.058 149.532L855.225 145.944L835.237 111.533L854.905 152.832L853.043 192.849L852.987 191.786L829.944 155.573L852.917 195.538L852.685 200.543L852.643 200.618L852.662 201.029L847.936 302.556H854.249L855.007 250.115L877.924 210.247L855.064 246.173Z" fill="#3F3D56"/>
        </g>
    </g>
</svg>
