<!-- <svg width="571" height="667" viewBox="0 0 571 667" fill="none" xmlns="http://www.w3.org/2000/svg"> -->
<svg viewBox="0 0 571 667" fill="none" xmlns="http://www.w3.org/2000/svg">
    <path d="M389.4 322H202.21C197.949 321.987 193.837 320.434 190.632 317.627L113.529 249.625C110.882 247.287 107.472 245.998 103.94 246H37.4V16.5C37.4049 12.1254 39.1449 7.93147 42.2382 4.8382C45.3314 1.74492 49.5254 0.00494413 53.9 0H372.9C377.275 0.00494149 381.468 1.74492 384.562 4.8382C387.655 7.93148 389.395 12.1254 389.4 16.5L389.4 322Z" fill="#E6E6E6"/>
    <path d="M113.9 106.5C133.23 106.5 148.9 90.83 148.9 71.5C148.9 52.17 133.23 36.5 113.9 36.5C94.5699 36.5 78.8999 52.17 78.8999 71.5C78.8999 90.83 94.5699 106.5 113.9 106.5Z" fill="white"/>
    <path d="M249.9 52.75H184.9C183.706 52.75 182.562 53.2241 181.718 54.068C180.874 54.9119 180.4 56.0565 180.4 57.25C180.4 58.4435 180.874 59.5881 181.718 60.432C182.562 61.2759 183.706 61.75 184.9 61.75H249.9C251.093 61.75 252.238 61.2759 253.082 60.432C253.926 59.5881 254.4 58.4435 254.4 57.25C254.4 56.0565 253.926 54.9119 253.082 54.068C252.238 53.2241 251.093 52.75 249.9 52.75Z" fill="white"/>
    <path d="M344.26 81.25H184.04C182.03 81.25 180.4 83.27 180.4 85.75C180.4 88.23 182.03 90.25 184.04 90.25H344.26C346.27 90.25 347.9 88.23 347.9 85.75C347.9 83.27 346.27 81.25 344.26 81.25Z" fill="white"/>
    <path d="M331.67 141.5H95.1299C93.21 141.5 91.65 143.52 91.65 146C91.65 148.48 93.21 150.5 95.1299 150.5H331.67C333.59 150.5 335.15 148.48 335.15 146C335.15 143.52 333.59 141.5 331.67 141.5Z" fill="white"/>
    <path d="M331.67 169.5H95.1299C93.21 169.5 91.65 171.52 91.65 174C91.65 176.48 93.21 178.5 95.1299 178.5H331.67C333.59 178.5 335.15 176.48 335.15 174C335.15 171.52 333.59 169.5 331.67 169.5Z" fill="white"/>
    <path d="M331.67 197.5H95.1299C93.21 197.5 91.65 199.52 91.65 202C91.65 204.48 93.21 206.5 95.1299 206.5H331.67C333.59 206.5 335.15 204.48 335.15 202C335.15 199.52 333.59 197.5 331.67 197.5Z" fill="white"/>
    <path d="M331.67 225.5H95.1299C93.21 225.5 91.65 227.52 91.65 230C91.65 232.48 93.21 234.5 95.1299 234.5H331.67C333.59 234.5 335.15 232.48 335.15 230C335.15 227.52 333.59 225.5 331.67 225.5Z" fill="white"/>
    <path d="M544.4 322H202.21C198.803 322.006 195.47 321.01 192.625 319.137L192.4 318.989V85.5C192.405 81.1254 194.145 76.9315 197.238 73.8382C200.331 70.7449 204.525 69.0049 208.9 69H527.9C532.274 69.0049 536.468 70.7449 539.562 73.8382C542.655 76.9315 544.395 81.1254 544.4 85.5L544.4 322Z" fill="#6C63FF"/>
    <path d="M268.9 175.5C288.23 175.5 303.9 159.83 303.9 140.5C303.9 121.17 288.23 105.5 268.9 105.5C249.57 105.5 233.9 121.17 233.9 140.5C233.9 159.83 249.57 175.5 268.9 175.5Z" fill="white"/>
    <path d="M404.9 121.75H339.9C338.706 121.75 337.562 122.224 336.718 123.068C335.874 123.912 335.4 125.057 335.4 126.25C335.4 127.443 335.874 128.588 336.718 129.432C337.562 130.276 338.706 130.75 339.9 130.75H404.9C406.093 130.75 407.238 130.276 408.082 129.432C408.926 128.588 409.4 127.443 409.4 126.25C409.4 125.057 408.926 123.912 408.082 123.068C407.238 122.224 406.093 121.75 404.9 121.75Z" fill="white"/>
    <path d="M499.26 150.25H339.04C337.03 150.25 335.4 152.27 335.4 154.75C335.4 157.23 337.03 159.25 339.04 159.25H499.26C501.27 159.25 502.9 157.23 502.9 154.75C502.9 152.27 501.27 150.25 499.26 150.25Z" fill="white"/>
    <path d="M486.67 210.5H250.13C248.21 210.5 246.65 212.52 246.65 215C246.65 217.48 248.21 219.5 250.13 219.5H486.67C488.59 219.5 490.15 217.48 490.15 215C490.15 212.52 488.59 210.5 486.67 210.5Z" fill="white"/>
    <path d="M486.67 238.5H250.13C248.21 238.5 246.65 240.52 246.65 243C246.65 245.48 248.21 247.5 250.13 247.5H486.67C488.59 247.5 490.15 245.48 490.15 243C490.15 240.52 488.59 238.5 486.67 238.5Z" fill="white"/>
    <path d="M486.67 266.5H250.13C248.21 266.5 246.65 268.52 246.65 271C246.65 273.48 248.21 275.5 250.13 275.5H486.67C488.59 275.5 490.15 273.48 490.15 271C490.15 268.52 488.59 266.5 486.67 266.5Z" fill="white"/>
    <path d="M486.67 294.5H250.13C248.21 294.5 246.65 296.52 246.65 299C246.65 301.48 248.21 303.5 250.13 303.5H486.67C488.59 303.5 490.15 301.48 490.15 299C490.15 296.52 488.59 294.5 486.67 294.5Z" fill="white"/>
    <path d="M553.9 319.5H202.21C198.829 319.504 195.547 318.362 192.9 316.26C192.69 316.1 192.49 315.93 192.29 315.75L162.52 289.5L115.18 247.75C112.077 245.01 108.08 243.499 103.94 243.5H17.9C13.3932 243.506 9.07291 245.3 5.88617 248.486C2.69943 251.673 0.906341 255.993 0.899963 260.5V649.5C0.906341 654.007 2.69943 658.327 5.88617 661.514C9.07291 664.701 13.3932 666.494 17.9 666.5H553.9C558.407 666.494 562.727 664.701 565.914 661.514C569.1 658.327 570.894 654.007 570.9 649.5V336.5C570.894 331.993 569.1 327.673 565.914 324.486C562.727 321.299 558.407 319.506 553.9 319.5V319.5ZM568.9 649.5C568.895 653.477 567.313 657.289 564.501 660.101C561.689 662.913 557.877 664.495 553.9 664.5H17.9C13.9232 664.495 10.1107 662.913 7.29871 660.101C4.48671 657.289 2.9048 653.477 2.89996 649.5V260.5C2.9048 256.523 4.48671 252.711 7.29871 249.899C10.1107 247.087 13.9232 245.505 17.9 245.5H103.94C107.593 245.497 111.122 246.831 113.86 249.25L159.5 289.5L190.96 317.25C194.074 319.978 198.07 321.488 202.21 321.5H553.9C557.877 321.505 561.689 323.087 564.501 325.899C567.313 328.711 568.895 332.523 568.9 336.5V649.5Z" fill="#3F3D56"/>
    <path d="M440.9 597.5H146.9C142.923 597.496 139.11 595.914 136.298 593.102C133.486 590.29 131.904 586.477 131.9 582.5V420.5C131.904 416.523 133.486 412.71 136.298 409.898C139.11 407.086 142.923 405.504 146.9 405.5H440.9C444.877 405.504 448.69 407.086 451.502 409.898C454.314 412.71 455.895 416.523 455.9 420.5V582.5C455.895 586.477 454.314 590.29 451.502 593.102C448.69 595.914 444.877 597.496 440.9 597.5ZM146.9 407.5C143.453 407.504 140.149 408.875 137.712 411.312C135.275 413.749 133.904 417.053 133.9 420.5V582.5C133.904 585.947 135.275 589.251 137.712 591.688C140.149 594.125 143.453 595.496 146.9 595.5H440.9C444.347 595.496 447.651 594.125 450.088 591.688C452.525 589.251 453.896 585.947 453.9 582.5V420.5C453.896 417.053 452.525 413.749 450.088 411.312C447.651 408.875 444.347 407.504 440.9 407.5H146.9Z" fill="#E6E6E6"/>
    <path d="M194.4 500.5C213.73 500.5 229.4 484.83 229.4 465.5C229.4 446.17 213.73 430.5 194.4 430.5C175.07 430.5 159.4 446.17 159.4 465.5C159.4 484.83 175.07 500.5 194.4 500.5Z" fill="#E6E6E6"/>
    <path d="M330.4 446.75H265.4C264.206 446.75 263.062 447.224 262.218 448.068C261.374 448.912 260.9 450.057 260.9 451.25C260.9 452.443 261.374 453.588 262.218 454.432C263.062 455.276 264.206 455.75 265.4 455.75H330.4C331.593 455.75 332.738 455.276 333.582 454.432C334.426 453.588 334.9 452.443 334.9 451.25C334.9 450.057 334.426 448.912 333.582 448.068C332.738 447.224 331.593 446.75 330.4 446.75Z" fill="#E6E6E6"/>
    <path d="M424.76 475.25H264.54C262.53 475.25 260.9 477.27 260.9 479.75C260.9 482.23 262.53 484.25 264.54 484.25H424.76C426.77 484.25 428.4 482.23 428.4 479.75C428.4 477.27 426.77 475.25 424.76 475.25Z" fill="#E6E6E6"/>
    <path d="M412.17 535.5H175.63C173.71 535.5 172.15 537.52 172.15 540C172.15 542.48 173.71 544.5 175.63 544.5H412.17C414.09 544.5 415.65 542.48 415.65 540C415.65 537.52 414.09 535.5 412.17 535.5Z" fill="#E6E6E6"/>
    <path d="M412.17 563.5H175.63C173.71 563.5 172.15 565.52 172.15 568C172.15 570.48 173.71 572.5 175.63 572.5H412.17C414.09 572.5 415.65 570.48 415.65 568C415.65 565.52 414.09 563.5 412.17 563.5Z" fill="#E6E6E6"/>
</svg>
