<svg xmlns="http://www.w3.org/2000/svg" id="Layer_1" x="0" y="0" version="1.1" viewBox="0 0 400 400" xml:space="preserve">
    <style>.st0{fill:#2684ff}</style>
    <g id="Layer_2">
        <g id="Blue">
            <path d="M362 227.4h-83.2c-5.4-.1-10.1 3.9-10.9 9.2-4.7 33.8-33.6 58.9-67.8 58.9l22.5 102.9C304.3 387.7 367 321.1 372.8 239c.4-6-4.1-11.2-10.1-11.6h-.7zM218 224.8l119.7-102.9c4.5-4 4.9-10.8 1-15.4-.3-.3-.6-.7-1-1L218 2.6c-4.6-3.9-11.5-3.3-15.3 1.3-1.6 2-2.6 4.4-2.6 7v205.7c0 6 4.9 10.9 10.9 10.8 2.6-.1 5.1-1 7-2.6z" class="st0"/>
            <linearGradient id="SVGID_1_" x1="114.459" x2="114.459" y1="344.782" y2="109.106" gradientTransform="matrix(1 0 0 -1 0 402.45)" gradientUnits="userSpaceOnUse">
                <stop offset="0" stop-color="#0052cc"/>
                <stop offset="1" stop-color="#2684ff"/>
            </linearGradient>
            <path fill="url(#SVGID_1_)" d="M28.8 249.8c11.4 85.9 84.7 150.1 171.4 150.2V295.5c-37.7 0-68.2-30.5-68.3-68.2L28.8 249.8z"/>
            <linearGradient id="SVGID_2_" x1="113.643" x2="113.643" y1="344.782" y2="109.106" gradientTransform="matrix(1 0 0 -1 0 402.45)" gradientUnits="userSpaceOnUse">
                <stop offset="0" stop-color="#0052cc"/>
                <stop offset="1" stop-color="#2684ff"/>
            </linearGradient>
            <path fill="url(#SVGID_2_)" d="M27.1 225.7v1.6h104.7c.1-37.7 30.6-68.2 68.3-68.2L177.7 56.4C92.3 67.5 28.2 139.7 27.1 225.7"/>
        </g>
    </g>
</svg>
